HIERARCHY
ROOT joint_Root
{
	OFFSET 0.0 0.0 0.0
	CHANNELS 6 Xposition Yposition Zposition Zrotation Xrotation Yrotation 
	JOINT Hips
	{
		OFFSET 4.5925 91.4895 -427.239
		CHANNELS 6 Xposition Yposition Zposition Zrotation Xrotation Yrotation 
		JOINT Spine
		{
			OFFSET 15.7357 0.0 0.0
			CHANNELS 6 Xposition Yposition Zposition Zrotation Xrotation Yrotation 
			JOINT Chest
			{
				OFFSET 8.98455 -0.406207 0.0
				CHANNELS 6 Xposition Yposition Zposition Zrotation Xrotation Yrotation 
				JOINT Neck
				{
					OFFSET 16.3773 0.0 0.0
					CHANNELS 6 Xposition Yposition Zposition Zrotation Xrotation Yrotation 
					JOINT Head
					{
						OFFSET 6.45672 0.0 0.0
						CHANNELS 6 Xposition Yposition Zposition Zrotation Xrotation Yrotation 
						End Site
						{
							OFFSET 0.0 0.0 0.0
						}
					}
				}
				JOINT Shoulder_L
				{
					OFFSET 12.9942 -0.242716 4.98039
					CHANNELS 6 Xposition Yposition Zposition Zrotation Xrotation Yrotation 
					JOINT UpperArm_L
					{
						OFFSET 5.34809 0.0 0.0
						CHANNELS 6 Xposition Yposition Zposition Zrotation Xrotation Yrotation 
						JOINT LowerArm_L
						{
							OFFSET 24.3286 1.87007e-05 0.0
							CHANNELS 6 Xposition Yposition Zposition Zrotation Xrotation Yrotation 
							JOINT Hand_L
							{
								OFFSET 22.2916 0.0 0.0
								CHANNELS 6 Xposition Yposition Zposition Zrotation Xrotation Yrotation 
								End Site
								{
									OFFSET 0.0 0.0 0.0
								}
							}
						}
					}
				}
				JOINT Shoulder_R
				{
					OFFSET 12.9945 -0.242716 -4.98039
					CHANNELS 6 Xposition Yposition Zposition Zrotation Xrotation Yrotation 
					JOINT UpperArm_R
					{
						OFFSET -5.34813 0.0 0.0
						CHANNELS 6 Xposition Yposition Zposition Zrotation Xrotation Yrotation 
						JOINT LowerArm_R
						{
							OFFSET -24.3289 0.000322201 0.0
							CHANNELS 6 Xposition Yposition Zposition Zrotation Xrotation Yrotation 
							JOINT Hand_R
							{
								OFFSET -22.2915 -0.000108084 0.0
								CHANNELS 6 Xposition Yposition Zposition Zrotation Xrotation Yrotation 
								End Site
								{
									OFFSET 0.0 0.0 0.0
								}
							}
						}
					}
				}
			}
		}
		JOINT UpperLeg_L
		{
			OFFSET -2.19248 -6.46944 0.0
			CHANNELS 6 Xposition Yposition Zposition Zrotation Xrotation Yrotation 
			JOINT LowerLeg_L
			{
				OFFSET 39.0811 0.0 -1.23785e-05
				CHANNELS 6 Xposition Yposition Zposition Zrotation Xrotation Yrotation 
				JOINT Foot_L
				{
					OFFSET 40.9854 0.0 -1.26872e-05
					CHANNELS 6 Xposition Yposition Zposition Zrotation Xrotation Yrotation 
					JOINT Toes_L
					{
						OFFSET 11.7543 0.0 0.0
						CHANNELS 6 Xposition Yposition Zposition Zrotation Xrotation Yrotation 
						End Site
						{
							OFFSET 0.0 0.0 0.0
						}
					}
				}
			}
		}
		JOINT UpperLeg_R
		{
			OFFSET -2.19251 6.46944 0.0
			CHANNELS 6 Xposition Yposition Zposition Zrotation Xrotation Yrotation 
			JOINT LowerLeg_R
			{
				OFFSET -39.0811 -0.00228153 -0.0401928
				CHANNELS 6 Xposition Yposition Zposition Zrotation Xrotation Yrotation 
				JOINT Foot_R
				{
					OFFSET -40.9854 0.0 0.0
					CHANNELS 6 Xposition Yposition Zposition Zrotation Xrotation Yrotation 
					JOINT Toes_R
					{
						OFFSET -11.7543 0.0 0.0
						CHANNELS 6 Xposition Yposition Zposition Zrotation Xrotation Yrotation 
						End Site
						{
							OFFSET 0.0 0.0 0.0
						}
					}
				}
			}
		}
	}
}
MOTION
Frames:	8
Frame Time:	0.0333333
0.000000 0.000000 0.000000 0.000000 0.000000 -0.000000 129.175000 90.178100 142.634000 96.603800 -28.906600 3.316000 15.735700 0.000005 -0.000001 73.506500 84.673700 -72.905400 8.984550 -0.406207 -0.000000 2.467770 -3.049690 1.266880 16.377300 -0.000001 -0.000001 -2.100200 -15.201500 2.710480 6.456720 -0.000001 -0.000000 -5.364570 -20.788800 10.785200 12.994200 -0.242716 4.980390 -90.531800 1.962920 -74.838900 5.348090 -0.000007 -0.000001 -56.075300 29.098600 -26.357700 24.328600 0.000019 0.000005 7.996370 16.056500 -26.924400 22.291600 -0.000001 0.000005 13.314000 5.220170 2.208270 12.994500 -0.242716 -4.980390 88.366000 10.220400 -80.866500 -5.348130 -0.000001 -0.000004 -65.131800 25.099000 -5.877210 -24.328900 0.000322 -0.000009 1.256590 5.899730 -12.055900 -22.291500 -0.000108 -0.000004 15.583200 5.304630 -0.057790 -2.192480 -6.469440 -0.000000 -174.544000 -7.654930 -1.511850 39.081100 -0.000007 -0.000012 -0.018888 0.027174 34.804100 40.985400 -0.000006 -0.000013 -3.306280 14.293300 -60.595600 11.754300 -0.000000 0.000003 -0.076874 -0.383121 -32.469800 -2.192510 6.469440 -0.000001 -174.142000 27.068300 154.476000 -39.081100 -0.002282 -0.040193 0.038745 -0.047356 36.824700 -40.985400 0.000008 0.000006 7.024360 1.097210 -65.223400 -11.754300 -0.000006 -0.000006 -0.021008 -0.172807 -23.635300
0.000000 0.000000 0.000000 0.000000 0.000000 -0.000000 126.956000 89.551000 144.864000 96.624600 -29.608800 2.995970 15.735700 0.000005 -0.000001 69.635300 84.741800 -68.982400 8.984550 -0.406207 -0.000000 2.118640 -3.689300 1.373110 16.377300 -0.000001 -0.000001 -2.043580 -15.088000 2.533260 6.456720 -0.000001 -0.000000 -5.489290 -20.357200 10.855000 12.994200 -0.242716 4.980390 -90.429300 1.577440 -74.773600 5.348090 -0.000007 -0.000001 -52.733300 28.573500 -30.991200 24.328600 0.000019 0.000005 9.373750 16.021600 -30.882800 22.291600 -0.000001 0.000005 13.659200 5.225750 2.065190 12.994500 -0.242716 -4.980390 88.145600 10.276500 -79.713700 -5.348130 -0.000001 -0.000004 -64.045700 22.376600 -3.172160 -24.328900 0.000322 -0.000009 1.213660 5.846670 -11.758900 -22.291500 -0.000108 -0.000004 15.276400 5.300360 0.062399 -2.192480 -6.469440 -0.000000 -173.870000 -7.264560 -0.551792 39.081100 -0.000007 -0.000012 -0.017992 0.024727 36.042900 40.985400 -0.000006 -0.000013 -3.958720 13.996400 -59.923700 11.754300 -0.000000 0.000003 -0.109743 -0.468124 -36.165300 -2.192510 6.469440 -0.000001 -170.155000 28.936900 151.640000 -39.081100 -0.002282 -0.040193 0.014204 -0.017895 31.357800 -40.985400 0.000008 0.000006 14.732500 -4.659010 -61.240300 -11.754300 -0.000006 -0.000006 -0.018768 -0.160365 -23.122800
0.000000 0.000000 0.000000 0.000000 0.000000 -0.000000 124.356000 88.466700 147.753000 97.532100 -30.662900 3.853470 15.735700 0.000005 -0.000001 67.028400 84.655900 -66.603400 8.984550 -0.406207 -0.000000 2.095800 -4.189570 0.926119 16.377300 -0.000001 -0.000001 -1.936890 -14.771400 2.106770 6.456720 -0.000001 -0.000000 -5.532030 -19.766800 10.709000 12.994200 -0.242716 4.980390 -90.360100 1.306070 -74.582700 5.348090 -0.000007 -0.000001 -50.191700 26.907400 -34.439900 24.328600 0.000019 0.000005 11.069300 16.312800 -34.856000 22.291600 -0.000001 0.000005 14.231600 5.228180 2.002520 12.994500 -0.242716 -4.980390 87.988500 10.285800 -78.872100 -5.348130 -0.000001 -0.000004 -62.771100 19.970500 -0.661811 -24.328900 0.000322 -0.000009 1.162020 5.444100 -12.079400 -22.291500 -0.000108 -0.000004 14.866700 5.310400 -0.221588 -2.192480 -6.469440 -0.000000 -173.710000 -7.488080 1.193300 39.081100 -0.000007 -0.000012 -0.018621 0.023624 38.248200 40.985400 -0.000006 -0.000013 -4.456870 13.989500 -59.003500 11.754300 -0.000000 0.000003 -0.162667 -0.579168 -41.154100 -2.192510 6.469440 -0.000001 -170.335000 27.050200 150.318000 -39.081100 -0.002282 -0.040193 -0.001080 0.005883 36.590300 -40.985400 0.000008 0.000006 20.142800 -10.480000 -62.493500 -11.754300 -0.000006 -0.000006 -0.013243 -0.126451 -21.729800
0.000000 0.000000 0.000000 0.000000 0.000000 -0.000000 121.483000 87.223600 151.025000 98.387200 -31.609800 5.169030 15.735700 0.000005 -0.000001 64.149700 84.475000 -63.884100 8.984550 -0.406207 -0.000000 2.197040 -4.827510 0.623628 16.377300 -0.000001 -0.000001 -1.822430 -14.326500 1.575050 6.456720 -0.000001 -0.000000 -5.495070 -19.120400 10.260200 12.994200 -0.242716 4.980390 -90.426800 1.520200 -74.316900 5.348090 -0.000007 -0.000001 -48.963700 24.580900 -36.203800 24.328600 0.000019 0.000005 12.391200 16.046300 -38.478000 22.291600 -0.000001 0.000005 15.376500 5.227760 2.013090 12.994500 -0.242716 -4.980390 87.830500 10.590100 -78.353000 -5.348130 -0.000001 -0.000004 -60.831900 18.931100 1.440160 -24.328900 0.000322 -0.000009 0.926820 4.273970 -12.260300 -22.291500 -0.000108 -0.000004 14.639200 5.320790 -0.519342 -2.192480 -6.469440 -0.000000 -173.045000 -8.354550 2.479590 39.081100 -0.000007 -0.000012 0.004885 -0.005394 42.149900 40.985400 -0.000006 -0.000013 -4.669980 14.875100 -56.123200 11.754300 -0.000000 0.000003 -0.238575 -0.705650 -47.137600 -2.192510 6.469440 -0.000001 -173.044000 23.149200 151.631000 -39.081100 -0.002282 -0.040193 0.038104 -0.036310 43.813100 -40.985400 0.000008 0.000006 16.763200 -13.580200 -68.951000 -11.754300 -0.000006 -0.000006 -0.005292 -0.064260 -19.187900
0.000000 0.000000 0.000000 0.000000 0.000000 -0.000000 118.360000 86.186300 154.081000 98.269200 -32.372800 6.381690 15.735700 0.000005 -0.000001 61.954700 84.125300 -61.480300 8.984550 -0.406207 -0.000000 2.638020 -5.540660 1.076040 16.377300 -0.000001 -0.000001 -1.741950 -14.128000 1.335190 6.456720 -0.000001 -0.000000 -5.609270 -18.401200 9.568990 12.994200 -0.242716 4.980390 -90.557300 1.966190 -74.172200 5.348090 -0.000007 -0.000001 -50.248800 21.888000 -36.137600 24.328600 0.000019 0.000005 13.729400 15.887100 -41.748400 22.291600 -0.000001 0.000005 16.870500 5.230420 1.945590 12.994500 -0.242716 -4.980390 87.626000 11.057900 -77.803400 -5.348130 -0.000001 -0.000004 -58.197600 19.172100 2.236900 -24.328900 0.000322 -0.000009 0.585353 2.870680 -11.549200 -22.291500 -0.000108 -0.000004 14.043300 5.337810 -1.012680 -2.192480 -6.469440 -0.000000 -171.647000 -8.167380 1.938670 39.081100 -0.000007 -0.000012 0.057996 -0.051355 48.473400 40.985400 -0.000006 -0.000013 -4.486050 15.084500 -50.605100 11.754300 -0.000000 0.000003 -0.245825 -0.716309 -47.660300 -2.192510 6.469440 -0.000001 -173.610000 23.905300 154.438000 -39.081100 -0.002282 -0.040193 0.081980 -0.071525 47.743200 -40.985400 0.000008 0.000006 16.724300 -13.974000 -74.287700 -11.754300 -0.000006 -0.000006 -0.003609 -0.047314 -18.497500
0.000000 0.000000 0.000000 0.000000 0.000000 -0.000000 115.400000 85.585500 156.744000 98.299200 -33.876600 7.476830 15.735700 0.000005 -0.000001 63.225200 83.935300 -62.526400 8.984550 -0.406207 -0.000000 3.109150 -5.486770 1.545980 16.377300 -0.000001 -0.000001 -1.837320 -14.290100 1.518180 6.456720 -0.000001 -0.000000 -5.733010 -17.899000 9.192110 12.994200 -0.242716 4.980390 -90.542300 1.954800 -74.491400 5.348090 -0.000007 -0.000001 -54.060600 19.501400 -34.347000 24.328600 0.000019 0.000005 14.835400 15.268600 -45.166400 22.291600 -0.000001 0.000005 18.249700 5.227960 2.008390 12.994500 -0.242716 -4.980390 87.393500 11.361300 -76.988100 -5.348130 -0.000001 -0.000004 -55.548300 18.977600 1.837620 -24.328900 0.000322 -0.000009 0.681376 3.645230 -10.615400 -22.291500 -0.000108 -0.000004 13.233500 5.321870 -0.548678 -2.192480 -6.469440 -0.000000 -171.909000 -5.835430 -0.761638 39.081100 -0.000007 -0.000012 0.084204 -0.056683 56.051100 40.985400 -0.000006 -0.000013 -5.271180 12.008700 -43.401200 11.754300 -0.000000 0.000003 -0.100915 -0.446834 -35.230900 -2.192510 6.469440 -0.000001 -174.622000 26.725100 158.034000 -39.081100 -0.002282 -0.040193 0.097556 -0.080317 49.580400 -40.985400 0.000008 0.000006 16.979100 -11.046200 -78.675700 -11.754300 -0.000006 -0.000006 -0.002619 -0.036214 -18.045800
0.000000 0.000000 0.000000 0.000000 0.000000 -0.000000 112.743000 85.510800 159.014000 98.171300 -36.970300 8.024310 15.735700 0.000005 -0.000001 67.173500 83.858700 -66.248600 8.984550 -0.406207 -0.000000 3.604620 -4.792510 1.999510 16.377300 -0.000001 -0.000001 -1.980240 -14.021700 2.069910 6.456720 -0.000001 -0.000000 -5.993940 -17.480000 9.490530 12.994200 -0.242716 4.980390 -90.436900 1.570500 -74.452100 5.348090 -0.000007 -0.000001 -57.936900 18.277100 -31.594700 24.328600 0.000019 0.000005 14.867200 13.729500 -48.204400 22.291600 -0.000001 0.000005 19.611800 5.238450 1.738300 12.994500 -0.242716 -4.980390 87.414300 11.475300 -77.211000 -5.348130 -0.000001 -0.000004 -54.014800 16.683500 0.597083 -24.328900 0.000322 -0.000009 1.076800 6.277420 -9.764670 -22.291500 -0.000108 -0.000004 13.906600 5.297980 0.116074 -2.192480 -6.469440 -0.000000 -172.938000 -4.245540 -4.433530 39.081100 -0.000007 -0.000012 0.062432 -0.031614 63.139900 40.985400 -0.000006 -0.000013 -4.685560 7.096530 -39.853600 11.754300 -0.000000 0.000003 -0.011232 -0.112633 -21.167400 -2.192510 6.469440 -0.000001 -175.362000 26.293200 161.994000 -39.081100 -0.002282 -0.040193 0.107130 -0.089956 49.108400 -40.985400 0.000008 0.000006 17.104800 -9.087070 -80.825200 -11.754300 -0.000006 -0.000006 -0.142040 -0.198280 -18.132200
0.000000 0.000000 0.000000 0.000000 0.000000 -0.000000 110.182000 86.056500 161.092000 98.218100 -41.236900 8.372380 15.735700 0.000005 -0.000001 72.701000 83.901200 -71.689000 8.984550 -0.406207 -0.000000 3.919570 -3.655900 2.147440 16.377300 -0.000001 -0.000001 -1.909920 -13.526700 2.720890 6.456720 -0.000001 -0.000000 -6.039070 -17.244100 10.233900 12.994200 -0.242716 4.980390 -90.354600 1.247740 -74.132500 5.348090 -0.000007 -0.000001 -59.749200 19.385700 -28.445400 24.328600 0.000019 0.000005 13.537400 11.568400 -50.210400 22.291600 -0.000001 0.000005 20.868500 5.254610 1.312130 12.994500 -0.242716 -4.980390 87.500800 11.569200 -77.721900 -5.348130 -0.000001 -0.000004 -53.655400 14.007700 -1.302420 -24.328900 0.000322 -0.000009 1.252370 7.904860 -9.039680 -22.291500 -0.000108 -0.000004 15.993200 5.279520 0.637037 -2.192480 -6.469440 -0.000000 -174.463000 -4.011020 -7.461720 39.081100 -0.000007 -0.000012 0.008154 -0.003321 67.802400 40.985400 -0.000006 -0.000013 -2.157130 1.653550 -46.523800 11.754300 -0.000000 0.000003 -0.011063 -0.111429 -21.118200 -2.192510 6.469440 -0.000001 -176.002000 24.027000 166.374000 -39.081100 -0.002282 -0.040193 0.099758 -0.091705 46.459100 -40.985400 0.000008 0.000006 17.046800 -7.142840 -80.908300 -11.754300 -0.000006 -0.000006 -0.577354 -0.705171 -19.056600
